<?xml version="1.0" encoding="UTF-8" standalone="no"?>
<!-- Created with Inkscape (http://www.inkscape.org/) -->

<svg
   version="1.1"
   id="svg1"
   width="755.90533"
   height="755.90533"
   viewBox="0 0 755.90533 755.90533"
   xmlns="http://www.w3.org/2000/svg"
   xmlns:svg="http://www.w3.org/2000/svg">
  <defs
     id="defs1" />
  <path
     id="path1"
     d="m 650.07998,325.03599 c 0,179.516 -145.52533,325.04133 -325.03866,325.04133 C 145.52533,650.07732 0,504.55199 0,325.03599 0,145.52533 145.52533,0 325.04132,0 504.55465,0 650.07998,145.52533 650.07998,325.03599"
     style="fill:#ffffff;fill-opacity:1;fill-rule:nonzero;stroke:none;stroke-width:1.33333" />
  <path
     id="path35"
     d="m 325.04092,624.07506 c -165.15333,0 -299.035989,-133.88266 -299.035989,-299.03599 0,-165.15467 133.882659,-299.03466 299.035989,-299.03466 165.152,0 299.03733,133.87999 299.03733,299.03466 0,165.15333 -133.88533,299.03599 -299.03733,299.03599 m 0,-611.075983 c -172.33333,0 -312.037322,139.703993 -312.037322,312.039993 0,172.33333 139.703992,312.03599 312.037322,312.03599 172.33333,0 312.03866,-139.70266 312.03866,-312.03599 0,-172.336 -139.70533,-312.039993 -312.03866,-312.039993"
     style="fill:#981121;fill-opacity:1;fill-rule:nonzero;stroke:none;stroke-width:1.33333" />
  <path
     id="path36"
     d="m 325.04092,546.06466 c -122.06933,0 -221.02666,-98.956 -221.02666,-221.02666 0,-122.072 98.95733,-221.028 221.02666,-221.028 122.07066,0 221.02666,98.956 221.02666,221.028 0,122.07066 -98.956,221.02666 -221.02666,221.02666 m 0,-455.057318 c -129.25066,0 -234.027986,104.781328 -234.027986,234.030658 0,129.25333 104.777326,234.02933 234.027986,234.02933 129.25066,0 234.02799,-104.776 234.02799,-234.02933 0,-129.24933 -104.77733,-234.030658 -234.02799,-234.030658"
     style="fill:#981121;fill-opacity:1;fill-rule:nonzero;stroke:none;stroke-width:1.33333" />
  <path
     id="path37"
     d="m 533.06705,325.03599 c 0,114.89333 -93.13866,208.02666 -208.02666,208.02666 -114.88933,0 -208.02533,-93.13333 -208.02533,-208.02666 0,-114.88533 93.136,-208.02399 208.02533,-208.02399 114.888,0 208.02666,93.13866 208.02666,208.02399"
     style="fill:#981121;fill-opacity:1;fill-rule:nonzero;stroke:none;stroke-width:1.33333" />
  <path
     id="path38"
     d="m 448.85478,552.43706 c 0,-6.16133 4.284,-14.73467 14.73067,-14.73467 8.304,0 14.732,5.35734 14.732,13.92934 0,8.576 -5.89067,15.53733 -15,15.53733 -10.17867,0 -14.46267,-8.03467 -14.46267,-14.732"
     style="fill:#981121;fill-opacity:1;fill-rule:nonzero;stroke:none;stroke-width:1.33333" />
  <path
     id="path39"
     d="m 171.76492,552.43706 c 0,-6.16133 4.28267,-14.73467 14.73333,-14.73467 8.30134,0 14.73067,5.35734 14.73067,13.92934 0,8.576 -5.892,15.53733 -15,15.53733 -10.18133,0 -14.464,-8.03467 -14.464,-14.732"
     style="fill:#981121;fill-opacity:1;fill-rule:nonzero;stroke:none;stroke-width:1.33333" />
  <path
     id="path40"
     d="m 313.71278,295.76773 h -6.612 c -2.216,0 -4.01333,-1.79733 -4.01333,-4.01067 V 211.9704 c 0,-2.21333 1.79733,-4.012 4.01333,-4.012 h 6.612 c 2.21467,0 4.01067,1.79867 4.01067,4.012 v 79.78666 c 0,2.21334 -1.796,4.01067 -4.01067,4.01067"
     style="fill:#ffffff;fill-opacity:1;fill-rule:nonzero;stroke:none;stroke-width:1.33333" />
  <path
     id="path41"
     d="m 326.69598,251.86413 h -3.30533 c -1.11067,0 -2.00667,-0.89867 -2.00667,-2.00533 v -83.79733 c 0,-1.10667 0.896,-2.00667 2.00667,-2.00667 h 3.30533 c 1.10667,0 2.004,0.9 2.004,2.00667 v 83.79733 c 0,1.10666 -0.89733,2.00533 -2.004,2.00533"
     style="fill:#ffffff;fill-opacity:1;fill-rule:nonzero;stroke:none;stroke-width:1.33333" />
  <path
     id="path42"
     d="m 342.98238,295.76773 h -6.61467 c -2.21333,0 -4.01066,-1.79733 -4.01066,-4.01067 V 211.9704 c 0,-2.21333 1.79733,-4.012 4.01066,-4.012 h 6.61467 c 2.21467,0 4.01067,1.79867 4.01067,4.012 v 79.78666 c 0,2.21334 -1.796,4.01067 -4.01067,4.01067"
     style="fill:#ffffff;fill-opacity:1;fill-rule:nonzero;stroke:none;stroke-width:1.33333" />
  <path
     id="path43"
     d="m 407.12305,248.12973 v 0 l 33.04267,-33.04133 c 0.71333,-0.716 0.71333,-1.87467 0,-2.58667 l -2.58667,-2.588 c -0.716,-0.71333 -1.87333,-0.71333 -2.59067,0 l -33.03866,33.044 c -1.428,-1.42933 -3.74534,-1.42933 -5.17467,0 l -41.39333,41.39333 c -1.428,1.42934 -1.428,3.74534 0,5.17467 l 5.17466,5.16933 c 1.428,1.432 3.744,1.432 5.172,0 l 41.39467,-41.39066 c 1.42933,-1.42934 1.42933,-3.74534 0,-5.17467"
     style="fill:#ffffff;fill-opacity:1;fill-rule:nonzero;stroke:none;stroke-width:1.33333" />
  <path
     id="path44"
     d="m 354.30918,313.71039 v -6.61733 c 0,-2.21334 1.79867,-4.01067 4.012,-4.01067 h 79.78533 c 2.21467,0 4.01333,1.79733 4.01333,4.01067 v 6.61733 c 0,2.216 -1.79866,4.008 -4.01333,4.008 h -79.78533 c -2.21333,0 -4.012,-1.792 -4.012,-4.008"
     style="fill:#ffffff;fill-opacity:1;fill-rule:nonzero;stroke:none;stroke-width:1.33333" />
  <path
     id="path45"
     d="m 398.21278,326.69226 v -3.30933 c 0,-1.108 0.9,-2.00267 2.00667,-2.00267 h 83.79733 c 1.10666,0 2.00533,0.89467 2.00533,2.00267 v 3.30933 c 0,1.10667 -0.89867,2.008 -2.00533,2.008 h -83.79733 c -1.10667,0 -2.00667,-0.90133 -2.00667,-2.008"
     style="fill:#ffffff;fill-opacity:1;fill-rule:nonzero;stroke:none;stroke-width:1.33333" />
  <path
     id="path46"
     d="m 354.30918,342.97866 v -6.612 c 0,-2.216 1.79867,-4.01333 4.012,-4.01333 h 79.78533 c 2.21467,0 4.01333,1.79733 4.01333,4.01333 v 6.612 c 0,2.216 -1.79866,4.01333 -4.01333,4.01333 h -79.78533 c -2.21333,0 -4.012,-1.79733 -4.012,-4.01333"
     style="fill:#ffffff;fill-opacity:1;fill-rule:nonzero;stroke:none;stroke-width:1.33333" />
  <path
     id="path47"
     d="m 401.94985,407.11933 v 0 l 33.04,33.04133 c 0.71467,0.71334 1.876,0.71334 2.58933,0 l 2.58667,-2.588 c 0.712,-0.71066 0.712,-1.868 0,-2.58666 l -33.04267,-33.04134 c 1.428,-1.42666 1.428,-3.744 0,-5.16933 l -41.39466,-41.396 c -1.428,-1.42933 -3.74534,-1.42933 -5.172,0 l -5.17467,5.17467 c -1.428,1.42666 -1.428,3.74533 0,5.16933 l 41.392,41.396 c 1.42933,1.42933 3.74533,1.42933 5.176,0"
     style="fill:#ffffff;fill-opacity:1;fill-rule:nonzero;stroke:none;stroke-width:1.33333" />
  <path
     id="path48"
     d="m 336.36785,354.30679 h 6.616 c 2.21333,0 4.00933,1.79733 4.00933,4.01067 v 79.78933 c 0,2.21333 -1.796,4.00933 -4.00933,4.00933 h -6.616 c -2.21467,0 -4.00933,-1.796 -4.00933,-4.00933 v -79.78933 c 0,-2.21334 1.79466,-4.01067 4.00933,-4.01067"
     style="fill:#ffffff;fill-opacity:1;fill-rule:nonzero;stroke:none;stroke-width:1.33333" />
  <path
     id="path49"
     d="m 323.38732,398.21039 h 3.30533 c 1.11067,0 2.00534,0.89867 2.00534,2.008 v 83.79733 c 0,1.10667 -0.89467,2.004 -2.00534,2.004 h -3.30533 c -1.108,0 -2.00533,-0.89733 -2.00533,-2.004 v -83.79733 c 0,-1.10933 0.89733,-2.008 2.00533,-2.008"
     style="fill:#ffffff;fill-opacity:1;fill-rule:nonzero;stroke:none;stroke-width:1.33333" />
  <path
     id="path50"
     d="m 307.09958,354.30679 h 6.612 c 2.216,0 4.01333,1.79733 4.01333,4.01067 v 79.78933 c 0,2.21333 -1.79733,4.00933 -4.01333,4.00933 h -6.612 c -2.21467,0 -4.01067,-1.796 -4.01067,-4.00933 v -79.78933 c 0,-2.21334 1.796,-4.01067 4.01067,-4.01067"
     style="fill:#ffffff;fill-opacity:1;fill-rule:nonzero;stroke:none;stroke-width:1.33333" />
  <path
     id="path51"
     d="m 242.95892,401.94479 v 0 l -33.04267,33.04133 c -0.712,0.71867 -0.712,1.87467 0,2.58667 l 2.58667,2.588 c 0.716,0.71333 1.87333,0.71333 2.58933,0 l 33.04,-33.04133 c 1.42934,1.42933 3.74534,1.42933 5.17467,0 l 41.39333,-41.396 c 1.428,-1.42934 1.428,-3.74267 0,-5.16934 l -5.17333,-5.17466 c -1.42933,-1.42934 -3.74533,-1.42934 -5.17467,0 l -41.39333,41.39333 c -1.42933,1.42667 -1.42933,3.74267 0,5.172"
     style="fill:#ffffff;fill-opacity:1;fill-rule:nonzero;stroke:none;stroke-width:1.33333" />
  <path
     id="path52"
     d="m 295.77145,336.36666 v 6.61467 c 0,2.21333 -1.796,4.01066 -4.01067,4.01066 h -79.78666 c -2.216,0 -4.01067,-1.79733 -4.01067,-4.01066 v -6.61467 c 0,-2.21867 1.79467,-4.01067 4.01067,-4.01067 h 79.78666 c 2.21467,0 4.01067,1.792 4.01067,4.01067"
     style="fill:#ffffff;fill-opacity:1;fill-rule:nonzero;stroke:none;stroke-width:1.33333" />
  <path
     id="path53"
     d="m 251.86785,323.38226 v 3.30933 c 0,1.108 -0.89867,2.00267 -2.00533,2.00267 h -83.79733 c -1.108,0 -2.00534,-0.89467 -2.00534,-2.00267 v -3.30933 c 0,-1.10667 0.89734,-2.00533 2.00534,-2.00533 h 83.79733 c 1.10666,0 2.00533,0.89866 2.00533,2.00533"
     style="fill:#ffffff;fill-opacity:1;fill-rule:nonzero;stroke:none;stroke-width:1.33333" />
  <path
     id="path54"
     d="m 295.77145,307.09853 v 6.612 c 0,2.21333 -1.796,4.01333 -4.01067,4.01333 h -79.78666 c -2.216,0 -4.01067,-1.8 -4.01067,-4.01333 v -6.612 c 0,-2.21867 1.79467,-4.016 4.01067,-4.016 h 79.78666 c 2.21467,0 4.01067,1.79733 4.01067,4.016"
     style="fill:#ffffff;fill-opacity:1;fill-rule:nonzero;stroke:none;stroke-width:1.33333" />
  <path
     id="path55"
     d="m 248.13345,242.95786 v 0 l -33.04267,-33.044 c -0.71333,-0.71333 -1.87333,-0.71333 -2.588,0 l -2.58533,2.588 c -0.71333,0.71067 -0.71333,1.87067 0,2.58667 l 33.04133,33.04133 c -1.428,1.42933 -1.428,3.744 0,5.17467 l 41.39334,41.39066 c 1.428,1.432 3.74533,1.432 5.17466,0 l 5.17334,-5.172 c 1.428,-1.42666 1.428,-3.74533 0,-5.172 l -41.39334,-41.39333 c -1.42933,-1.42933 -3.74533,-1.42933 -5.17333,0"
     style="fill:#ffffff;fill-opacity:1;fill-rule:nonzero;stroke:none;stroke-width:1.33333" />
</svg>
